<svg width="23" height="21" viewBox="0 0 23 21" fill="none" xmlns="http://www.w3.org/2000/svg">
<path opacity="0.4" d="M22.5957 14.8829C22.5957 17.9054 20.0757 20.3537 16.937 20.3646H16.9257H5.77695C2.64945 20.3646 0.0957031 17.9271 0.0957031 14.9046V14.8937C0.0957031 14.8937 0.102453 10.0989 0.111453 7.68742C0.112578 7.23458 0.652578 6.98108 1.02045 7.26275C3.69345 9.30483 8.47358 13.0282 8.5332 13.077C9.33195 13.6934 10.3445 14.0412 11.3795 14.0412C12.4145 14.0412 13.427 13.6934 14.2257 13.0651C14.2853 13.0272 18.9586 9.41533 21.6721 7.33967C22.0411 7.05692 22.5833 7.31042 22.5845 7.76217C22.5957 10.1552 22.5957 14.8829 22.5957 14.8829Z" fill="white"/>
<path d="M22.0047 3.76109C21.0305 1.99309 19.1135 0.864258 17.003 0.864258H5.77548C3.66498 0.864258 1.74798 1.99309 0.773729 3.76109C0.555479 4.15651 0.658979 4.64942 1.02235 4.92892L9.37548 11.3628C9.96048 11.8178 10.6692 12.0443 11.378 12.0443C11.3825 12.0443 11.3859 12.0443 11.3892 12.0443C11.3926 12.0443 11.3971 12.0443 11.4005 12.0443C12.1092 12.0443 12.818 11.8178 13.403 11.3628L21.7561 4.92892C22.1195 4.64942 22.223 4.15651 22.0047 3.76109Z" fill="white"/>
</svg>
