<svg width="16" height="24" viewBox="0 0 16 24" fill="none" xmlns="http://www.w3.org/2000/svg">
<path fill-rule="evenodd" clip-rule="evenodd" d="M3.97258 1.7754C6.4097 0.359327 9.40532 0.384078 11.8196 1.84023C14.2101 3.32604 15.663 5.97778 15.6494 8.83031C15.5938 11.6641 14.0359 14.3279 12.0885 16.3871C10.9645 17.581 9.70714 18.6367 8.34208 19.5327C8.20149 19.614 8.04749 19.6684 7.88769 19.6933C7.73388 19.6867 7.5841 19.6413 7.45184 19.561C5.3678 18.2148 3.53946 16.4964 2.05478 14.4885C0.81245 12.8124 0.10664 10.7875 0.0332044 8.68862C0.0315916 5.83062 1.53546 3.19147 3.97258 1.7754ZM5.383 9.87146C5.79295 10.8821 6.76061 11.5414 7.83415 11.5414C8.53745 11.5464 9.21351 11.2647 9.7117 10.759C10.2099 10.2533 10.4888 9.56566 10.4863 8.84925C10.4901 7.75572 9.84627 6.76773 8.85553 6.3466C7.86479 5.92547 6.72253 6.15427 5.96209 6.92616C5.20165 7.69806 4.97304 8.86079 5.383 9.87146Z" fill="white"/>
<ellipse opacity="0.4" cx="7.85268" cy="21.9241" rx="5.57729" ry="1.11546" fill="white"/>
</svg>
